<svg  xmlns="http://www.w3.org/2000/svg" xmlns:xlink="http://www.w3.org/1999/xlink" width="957" height="300" viewBox="0 0 981 324"><path transform="translate(0 100)" d="M51.8,-27.2L81.9,-28.4Q83.8,-28.4 83.8,-29.7Q83.8,-31 81.5,-33.1L84.4,-54.6Q84.5,-55 84.75,-55.45Q85,-55.9 85,-56.5Q85,-57.6 83.95,-58.85Q82.9,-60.1 81.2,-60.1Q80.9,-60.1 80.55,-60.05Q80.2,-60 79.8,-60L52,-58.3L52.1,-79.1Q52.1,-80.2 51.15,-80.8Q50.2,-81.4 49,-81.7Q47.8,-82 47.1,-82Q46,-82 46,-81.4Q46,-81.3 46.05,-81.2Q46.1,-81.1 46.1,-81Q46.4,-80 46.6,-78.7Q46.8,-77.4 46.8,-76.1L46.7,-58L21.2,-56.5Q16.8,-58.1 15.5,-58.1Q14.4,-58.1 14.4,-57.4Q14.4,-56.9 14.8,-56.1Q15.6,-54.5 15.95,-53.05Q16.3,-51.6 16.4,-50.4L18.2,-30Q18.3,-29.2 18.35,-28.5Q18.4,-27.8 18.4,-27.2Q18.4,-26.5 18.35,-25.85Q18.3,-25.2 18.2,-24.4L18.2,-24Q18.2,-22.9 19.65,-21.75Q21.1,-20.6 22.2,-20.6Q23,-20.6 23.45,-21.1Q23.9,-21.6 23.9,-22.1L23.9,-22.2L23.6,-25.8L46.6,-26.9L46.5,-2.1Q46.5,0.3 46.4,2.5Q46.3,4.7 46,6.7L46,7.3Q46,8.6 47.45,9.7Q48.9,10.8 50,10.8Q51.6,10.8 51.6,8.9L51.8,-27.2ZM79,-55.2L76.4,-32.8L51.8,-31.7L52,-53.8L79,-55.2ZM46.7,-53.5L46.6,-31.4L23.2,-30.3L21.2,-51.9L46.7,-53.5Z"></path><path transform="translate(100 100)" d="M90.4,7.6L90.8,7.6Q92.3,7.6 93.85,6.3Q95.4,5 95.4,4.3Q95.4,3.8 95.05,3.5Q94.7,3.2 94.4,3.1Q82.1,-2.3 71.7,-9.8Q61.3,-17.3 53.2,-26.1Q58.5,-32.4 62.75,-40Q67,-47.6 70.1,-56L89.2,-57.1Q90.6,-57.3 90.6,-58.4Q90.6,-59.6 89,-60.8Q87.4,-62 86.2,-62Q85.7,-62 85.4,-61.9Q84.4,-61.6 83.35,-61.4Q82.3,-61.2 80.8,-61.1L52,-59.4L52.1,-75.4Q52.1,-76.2 50.9,-76.7Q49.7,-77.2 48.35,-77.5Q47,-77.8 46.5,-77.8Q45.3,-77.8 45.3,-77.2Q45.3,-76.9 45.6,-76.6Q46.7,-75 46.7,-73.5L46.9,-59.1L16.2,-57.3Q15.8,-57.3 15.4,-57.25Q15,-57.2 14.5,-57.2Q13.7,-57.2 12.8,-57.3Q11.9,-57.4 11.1,-57.6Q11,-57.6 10.9,-57.65Q10.8,-57.7 10.7,-57.7Q10.2,-57.7 10.2,-57.3Q10.2,-57 10.3,-56.8Q10.8,-55.6 11.5,-54.4L12.4,-53.5Q13,-52.9 14.8,-52.9Q15.3,-52.9 16,-52.9Q16.7,-52.9 17.6,-53L29.1,-53.7Q32.8,-46.7 37,-39.7Q41.2,-32.7 46.9,-26Q43,-21.7 38.05,-16.75Q33.1,-11.8 26.05,-6.45Q19,-1.1 8.4,4.6Q6.6,5.6 6.6,6.6Q6.6,7.3 7.6,7.3Q8.1,7.3 12,5.7Q15.9,4.1 22.05,0.6Q28.2,-2.9 35.5,-8.6Q42.8,-14.3 50.2,-22.6Q58.5,-13.6 68.75,-5.85Q79,1.9 90.2,7.5Q90.3,7.6 90.4,7.6ZM34.2,-54L64.1,-55.7Q61.6,-48.4 57.9,-41.75Q54.2,-35.1 50,-29.3Q46.2,-34.3 41.8,-40.95Q37.4,-47.6 34.2,-54Z"></path><path transform="translate(200 100)" d="M79.6,-68.4L79.8,0.6Q76.7,-0.5 73.45,-2.05Q70.2,-3.6 67.1,-5.3Q65.3,-6.4 64.2,-6.4Q63.5,-6.4 63.5,-5.8Q63.5,-5.1 65,-3.6Q66.5,-2.1 68.8,-0.3Q71.1,1.5 73.6,3.15Q76.1,4.8 78.15,5.9Q80.2,7 81.2,7Q82.3,7 83.65,5.9Q85,4.8 85,2.5Q85,1.8 84.95,1.05Q84.9,0.3 84.9,-0.5L84.8,-68Q84.8,-68.3 85.05,-68.75Q85.3,-69.2 85.3,-69.8Q85.3,-71 83.9,-72Q82.5,-73 81,-73L80.2,-73L21.5,-69.3Q18.9,-70.6 17.45,-71.1Q16,-71.6 15.3,-71.6Q14.6,-71.6 14.6,-71Q14.6,-70.8 14.8,-70Q15.3,-68.6 15.5,-66.5Q15.7,-64.4 15.7,-61.8L15.1,-5.1Q15.1,-3.5 15.05,-1.85Q15,-0.2 14.6,1.6Q14.5,2 14.45,2.4Q14.4,2.8 14.4,3.1Q14.4,4.6 16.05,5.55Q17.7,6.5 18.7,6.5Q20.2,6.5 20.2,4.6L20.6,-64.9L79.6,-68.4ZM69.3,-61.1L69.3,-61.3Q69.3,-62.4 67.6,-63.3Q65.9,-64.2 64.8,-64.2Q63.8,-64.2 63.8,-63.5Q63.8,-63.4 63.85,-63.35Q63.9,-63.3 63.9,-63.2Q64.2,-62.2 64.2,-61.2Q64.2,-60.2 63.8,-57Q63.4,-53.8 62.75,-49.9Q62.1,-46 61.3,-42.7Q56.1,-49.1 54,-51.35Q51.9,-53.6 51.1,-53.6Q50.4,-53.6 49.6,-53Q48.8,-52.4 48.8,-51.6Q48.8,-50.7 49.6,-49.9Q51.9,-47.5 54.5,-44.35Q57.1,-41.2 59.8,-37.5Q57.1,-28.8 53.1,-21Q49.1,-13.2 44.2,-7Q42.8,-5.2 42.8,-4.1Q42.8,-3.3 43.6,-3.3Q45,-3.3 48.25,-6.8Q51.5,-10.3 55.5,-16.95Q59.5,-23.6 62.9,-33Q64.9,-30 66.9,-26.8Q68.9,-23.6 70.7,-20.4Q71.4,-19 72.5,-19Q73.3,-19 74.2,-19.9Q75.1,-20.8 75.1,-21.9Q75.1,-23 72.7,-26.85Q70.3,-30.7 64.6,-38.3Q68.1,-49.3 69.3,-61.1ZM46,-59.6L46,-59.9Q46,-61.1 44.3,-62Q42.6,-62.9 41.5,-62.9Q40.7,-62.9 40.7,-62.2L40.7,-62Q40.9,-61.4 41,-60.8Q41.1,-60.2 41.1,-59.7L41.1,-59.2Q40.6,-54.7 39.7,-50.15Q38.8,-45.6 37.4,-41.2Q33.5,-46.8 31.55,-49.2Q29.6,-51.6 28.9,-52.1Q28.2,-52.6 27.9,-52.6Q27.9,-52.6 26.8,-52.2Q25.7,-51.8 25.7,-50.5Q25.7,-50.1 25.9,-49.75Q26.1,-49.4 26.4,-49Q28.7,-46.5 31.1,-43.15Q33.5,-39.8 35.9,-36.2Q31.5,-23.2 24,-12.3Q23,-10.9 23,-9.8Q23,-8.8 23.8,-8.8Q24.7,-8.8 26.45,-10.75Q28.2,-12.7 30.3,-16.05Q32.4,-19.4 34.55,-23.55Q36.7,-27.7 38.5,-32Q40.2,-29.2 41.75,-26.35Q43.3,-23.5 44.6,-20.8Q45.2,-19.2 46.2,-19.2Q47.3,-19.2 48.15,-20.4Q49,-21.6 49,-22.2Q49,-22.9 48.35,-24.25Q47.7,-25.6 45.9,-28.55Q44.1,-31.5 40.4,-37Q44.3,-48 46,-59.6Z"></path><path transform="translate(300 100)" d="M21.4,-60.8L83,-64.1Q81.4,-59 78.9,-54.6Q77.4,-52.1 77.4,-50.9Q77.4,-50.1 78.1,-50.1Q79.4,-50.1 82.35,-53.75Q85.3,-57.4 88.6,-63.7Q88.8,-64.1 89.35,-64.7Q89.9,-65.3 89.9,-66Q89.9,-66.2 89.05,-67.4Q88.2,-68.6 86.1,-68.6L85.3,-68.6L52.2,-66.7L52.3,-77.9Q52.3,-78.6 50.8,-79.45Q49.3,-80.3 47.2,-80.3Q45.8,-80.3 45.8,-79.6Q45.8,-79.3 46,-79Q47,-77.7 47,-76.3L47.1,-66.4L22.9,-65L24,-68.7Q24,-68.9 24.05,-69.1Q24.1,-69.3 24.1,-69.4Q24.1,-70 23.7,-70.5Q23.3,-71 22.2,-71.4Q21.5,-71.7 21,-71.7Q20.3,-71.7 20.05,-71.25Q19.8,-70.8 19.6,-70.1Q18.6,-66.8 17.15,-63.05Q15.7,-59.3 14.1,-55.9Q12.5,-52.5 10.9,-50Q10.6,-49.4 10.6,-48.9Q10.6,-47.6 11.95,-46.8Q13.3,-46 13.8,-46Q14.9,-46 15.3,-47Q16.8,-49.9 18.45,-53.5Q20.1,-57.1 21.4,-60.8ZM53.9,-23.3L90.9,-24.9Q92.4,-25.1 92.4,-26.1Q92.4,-26.9 91.55,-27.8Q90.7,-28.7 89.7,-29.3Q88.7,-29.9 88.1,-29.9Q87.5,-29.9 87.1,-29.8Q85.7,-29.6 84.4,-29.35Q83.1,-29.1 81.4,-29L53.2,-27.7Q52.8,-30.4 52,-32.9Q56.8,-35.8 61.25,-39.45Q65.7,-43.1 70.1,-47.4Q70.4,-47.7 71.2,-48.2Q72,-48.7 72,-49.5Q72,-50.6 70.55,-51.7Q69.1,-52.8 67.7,-52.8Q67.5,-52.8 67.2,-52.75Q66.9,-52.7 66.6,-52.7L32.9,-50.4Q32.5,-50.4 32.1,-50.35Q31.7,-50.3 31.2,-50.3Q30.4,-50.3 29.45,-50.4Q28.5,-50.5 27.7,-50.7L27.3,-50.7Q26.6,-50.7 26.6,-50.3Q26.6,-50.2 27.05,-49.15Q27.5,-48.1 28.65,-47.05Q29.8,-46 31.7,-46Q32.2,-46 32.85,-46Q33.5,-46 34.2,-46.1L64.2,-48.3Q59.5,-42.8 50.5,-36.9Q49.8,-38 49.4,-38.45Q49,-38.9 48.3,-38.9Q48.2,-38.9 46.85,-38.5Q45.5,-38.1 45.5,-36.7Q45.5,-36.3 45.8,-35.5Q46.6,-33.7 47.25,-31.65Q47.9,-29.6 48.4,-27.5L14.5,-25.9L13.3,-25.9Q12.2,-25.9 11.1,-26Q10,-26.1 9.1,-26.4Q9,-26.4 8.9,-26.45Q8.8,-26.5 8.6,-26.5Q8.1,-26.5 8.1,-26Q8.1,-25.7 8.2,-25.5Q9.4,-22.8 10.6,-22.2Q11.8,-21.6 13.6,-21.6L15.3,-21.6L49.2,-23.1Q50.1,-16.8 50.1,-10.6Q50.1,-4.3 49.3,0.8Q49.1,1.3 48.8,1.3Q48.4,1.3 48.2,1.2Q42,-0.7 33.6,-5Q32.8,-5.5 32.1,-5.65Q31.4,-5.8 30.9,-5.8Q29.8,-5.8 29.8,-5Q29.8,-4.3 31.6,-2.75Q33.4,-1.2 36.15,0.6Q38.9,2.4 41.85,4.05Q44.8,5.7 47.15,6.75Q49.5,7.8 50.4,7.8Q52.1,7.8 53,6.3Q53.9,4.8 54.3,2.5Q54.7,0.2 54.8,-2.25Q54.9,-4.7 54.9,-6.6Q54.9,-10.3 54.65,-14.7Q54.4,-19.1 53.9,-23.3Z"></path><path transform="translate(400 100)" d="M10,12L90,12L90,-88L10,-88L10,12ZM81.3,-83L50,-42.3L18.7,-83L81.3,-83ZM46.6,-37.9L15,3.2L15,-79L46.6,-37.9ZM85,-79L85,3.2L53.4,-37.9L85,-79ZM50,-33.5L81.2,7L18.8,7L50,-33.5Z"></path><path transform="translate(500 100)" d="M10,12L90,12L90,-88L10,-88L10,12ZM81.3,-83L50,-42.3L18.7,-83L81.3,-83ZM46.6,-37.9L15,3.2L15,-79L46.6,-37.9ZM85,-79L85,3.2L53.4,-37.9L85,-79ZM50,-33.5L81.2,7L18.8,7L50,-33.5Z"></path><path transform="translate(0 200)" d="M25.8,-64L25.8,-10.7Q25.8,-8.1 25.7,-5.55Q25.6,-3 25.6,-1.8Q25.6,-0.5 27.2,0.25Q28.8,1 30.2,1Q30.9,1 31.4,0.75Q31.9,0.5 31.9,-0Q31.9,-1.7 31.75,-4.6Q31.6,-7.5 31.6,-10.6L31.6,-64.4L44.3,-65.1Q44.8,-65.1 45.4,-65.15Q46,-65.2 46.6,-65.2Q49,-65.2 51.3,-65.05Q53.6,-64.9 54.6,-64.9Q55.7,-64.9 55.7,-66.4Q55.7,-67.8 54.85,-69.3Q54,-70.8 52.8,-70.8L52.5,-70.8Q51.3,-70.6 48.9,-70.4Q46.5,-70.2 44.2,-70L13,-68.2Q12.3,-68.2 11.45,-68.15Q10.6,-68.1 9.8,-68.1Q7.5,-68.1 5.5,-68.2Q3.5,-68.3 2.7,-68.3Q1.6,-68.3 1.6,-66.8Q1.6,-65.5 2.5,-63.95Q3.4,-62.4 4.7,-62.4L4.8,-62.4Q5.9,-62.5 8.25,-62.85Q10.6,-63.2 13.1,-63.3Q13.1,-63.3 14.8,-63.4Q16.5,-63.5 18.85,-63.65Q21.2,-63.8 23.2,-63.9Q25.2,-64 25.7,-64L25.8,-64Z"></path><path transform="translate(58 200)" d="M43.8,-1.7L43.8,-1.6Q43.8,-0.5 45.3,0.25Q46.8,1 48.1,1Q49.7,1 49.7,0.1Q49.7,-1.1 49.65,-3.4Q49.6,-5.7 49.5,-7.8Q49.4,-9.9 49.4,-10.5L49.4,-29.7Q49.4,-32.7 48.9,-35.95Q48.4,-39.2 46.9,-42Q45.4,-44.8 42.5,-46.55Q39.6,-48.3 34.8,-48.3Q31.1,-48.3 27.25,-46.85Q23.4,-45.4 20.1,-42.65Q16.8,-39.9 14.8,-35.8L14.8,-58Q14.8,-59.2 14.85,-61.25Q14.9,-63.3 14.95,-65.2Q15,-67.1 15,-67.9Q15,-69.1 13.5,-69.85Q12,-70.6 10.6,-70.6Q9.1,-70.6 9.1,-69.7Q9.1,-68.6 9.15,-66.4Q9.2,-64.2 9.3,-62.1Q9.4,-60 9.4,-59L9.4,-11.5Q9.4,-10.8 9.35,-8.75Q9.3,-6.7 9.25,-4.6Q9.2,-2.5 9.2,-1.7Q9.2,-0.5 10.75,0.25Q12.3,1 13.6,1Q15.1,1 15.1,0.1Q15,-1.9 14.9,-4.2Q14.8,-6.5 14.8,-8.9L14.8,-10.5Q14.9,-12.9 14.95,-16.15Q15,-19.4 15.35,-22.8Q15.7,-26.2 16.4,-28.7Q17.9,-33.8 20.9,-36.95Q23.9,-40.1 27.6,-41.6Q31.3,-43.1 34.8,-43.1Q38.7,-43.1 40.65,-41.3Q42.6,-39.5 43.3,-36.4Q44,-33.3 44,-29.3L44,-11.5Q44,-10.4 43.95,-8.35Q43.9,-6.3 43.9,-4.4Q43.9,-2.5 43.8,-1.7Z"></path><path transform="translate(117 200)" d="M11.8,-20.1L13,-20.1Q21.3,-20.1 27.8,-21.05Q34.3,-22 38.8,-23.3Q42.8,-24.6 44.85,-25.95Q46.9,-27.3 47.6,-29.2Q48.3,-31.1 48.3,-34Q48.3,-37.6 46.75,-40.9Q45.2,-44.2 41.6,-46.3Q38,-48.4 31.9,-48.4Q27,-48.4 22.8,-46.15Q18.6,-43.9 15.3,-40.4Q12,-36.9 9.85,-32.9Q7.7,-28.9 7.1,-25.3Q7.1,-25.3 6.65,-25.25Q6.2,-25.2 6,-25.2Q4.3,-25.2 4.3,-24Q4.3,-22.4 6.4,-21L6.4,-19.5Q6.4,-13 8.8,-8.25Q11.2,-3.5 15.25,-0.95Q19.3,1.6 24.4,1.6Q30.5,1.6 35.05,-0.25Q39.6,-2.1 42.55,-4.65Q45.5,-7.2 47,-9.5Q48.5,-11.8 48.5,-12.7Q48.5,-13.7 47.7,-13.7Q46.8,-13.7 45.6,-12.4Q41.6,-8.1 36.25,-5.75Q30.9,-3.4 24.4,-3.4Q19.3,-3.4 15.55,-7.5Q11.8,-11.6 11.8,-19.8L11.8,-20.1ZM14.6,-25L12.5,-25Q13,-27.7 14.7,-30.9Q16.4,-34.1 18.95,-37Q21.5,-39.9 24.8,-41.75Q28.1,-43.6 31.8,-43.6Q37.1,-43.6 40,-41.05Q42.9,-38.5 42.9,-34.1Q42.9,-32.3 42.5,-31.2Q42.1,-30.1 40.75,-29.3Q39.4,-28.5 36.3,-27.6Q32.9,-26.6 27.55,-25.8Q22.2,-25 14.6,-25Z"></path><path transform="translate(171 200)" d=""></path><path transform="translate(206 200)" d="M10.8,-62L10.8,-11.6Q10.8,-8.7 10.7,-5.8Q10.6,-2.9 10.6,-1.7Q10.6,-0.4 12.2,0.35Q13.8,1.1 15.2,1.1Q16.9,1.1 16.9,0.1Q16.9,-1.6 16.75,-4.85Q16.6,-8.1 16.6,-11.5L16.6,-32.9Q17,-32.4 18.1,-32.3Q19.2,-32.2 20.8,-32.2Q23.4,-32.2 26.45,-32.45Q29.5,-32.7 32.4,-33.05Q35.3,-33.4 37.2,-33.8Q46.4,-35.7 51.85,-40.8Q57.3,-45.9 57.3,-54.7Q57.3,-62.3 51.15,-66.6Q45,-70.9 32,-70.9Q26.8,-70.9 23.2,-70.45Q19.6,-70 17.9,-69.7Q14.2,-69 12.05,-68.5Q9.9,-68 7.9,-67.6Q6.9,-67.5 6.9,-66.3Q6.9,-65 8.05,-63.5Q9.2,-62 10.5,-62L10.8,-62ZM16.6,-35.4L16.6,-63.6Q19.9,-64.5 24.05,-65.05Q28.2,-65.6 31.8,-65.6Q40.7,-65.6 46,-63.1Q51.3,-60.6 51.3,-54.1Q51.3,-47.9 46.95,-44.1Q42.6,-40.3 34.8,-38.5Q33.1,-38.1 30.05,-37.6Q27,-37.1 23.75,-36.7Q20.5,-36.3 18.1,-36.1Q17.1,-36.1 16.6,-35.4Z"></path><path transform="translate(266 200)" d="M9.4,-36.7L9.4,-10.6Q9.4,-9.9 9.35,-8.1Q9.3,-6.3 9.25,-4.45Q9.2,-2.6 9.2,-1.8Q9.2,-0.6 10.75,0.15Q12.3,0.9 13.6,0.9Q15.1,0.9 15.1,-0Q15.1,-1.7 14.95,-4.6Q14.8,-7.5 14.8,-10.6Q14.8,-16.3 14.85,-20.1Q14.9,-23.9 15.2,-26.6Q15.5,-29.3 16.2,-31.6Q17.9,-37.1 22,-40Q26.1,-42.9 30.4,-42.9Q32,-42.9 34.4,-42Q36.8,-41.1 37.8,-39.1Q38.4,-38.1 39.2,-38.1Q40.2,-38.1 41.1,-39.6Q42,-41.1 42,-42.5Q42,-43.8 40.3,-45.15Q38.6,-46.5 36,-47.45Q33.4,-48.4 30.7,-48.4Q25.4,-48.4 21.15,-45.65Q16.9,-42.9 14.9,-39.1Q14.9,-40.9 14.95,-42.65Q15,-44.4 15,-45.6Q15,-46.8 13.5,-47.55Q12,-48.3 10.6,-48.3Q9.1,-48.3 9.1,-47.4Q9.1,-46.3 9.15,-44.1Q9.2,-41.9 9.3,-39.8Q9.4,-37.7 9.4,-36.7Z"></path><path transform="translate(309 200)" d="M19.3,-44.2Q18.8,-45.2 17.7,-45.2Q16.7,-45.2 14.75,-43.1Q12.8,-41 10.75,-37.45Q8.7,-33.9 7.25,-29.55Q5.8,-25.2 5.8,-20.7Q5.8,-10.4 11.25,-4.4Q16.7,1.6 26.7,1.6Q32.5,1.6 36.9,-0.65Q41.3,-2.9 44.3,-6.7Q47.3,-10.5 48.85,-15.1Q50.4,-19.7 50.4,-24.5Q50.4,-35.8 45.05,-42.1Q39.7,-48.4 31.2,-48.4Q27,-48.4 24.15,-47.05Q21.3,-45.7 19.3,-44.2ZM26.7,-3.5Q19.5,-3.5 15.4,-8Q11.3,-12.5 11.3,-20.8Q11.3,-24.7 12.75,-28.7Q14.2,-32.7 16.75,-36.05Q19.3,-39.4 22.85,-41.4Q26.4,-43.4 30.6,-43.4Q37.5,-43.4 41.2,-38.15Q44.9,-32.9 44.9,-24.5Q44.9,-18.7 42.4,-13.95Q39.9,-9.2 35.75,-6.35Q31.6,-3.5 26.7,-3.5Z"></path><path transform="translate(365 200)" d="M18.3,-60.2Q22,-60.2 22,-64.1Q22,-66.1 20.5,-67.85Q19,-69.6 17.3,-69.6Q15.4,-69.6 14.45,-68.5Q13.5,-67.4 13.5,-65.5Q13.5,-63.7 14.95,-61.95Q16.4,-60.2 18.3,-60.2ZM15.1,-36.4L15.1,3.1Q15.1,4.6 14.7,6.4Q14.3,8.2 13.3,9.5Q12.3,10.8 10.4,10.8Q9.1,10.8 7.45,10.4Q5.8,10 4.3,8.2Q3.6,7.3 2.8,7.3Q1.8,7.3 1,8.6Q0.2,9.9 0.2,11.2Q0.2,12.5 2.75,14.25Q5.3,16 10.4,16Q14.6,16 16.75,13.9Q18.9,11.8 19.7,8.8Q20.5,5.8 20.5,3L20.5,-36.4Q20.5,-37.6 20.55,-39.5Q20.6,-41.4 20.65,-43.15Q20.7,-44.9 20.7,-45.7Q20.7,-46.9 19.2,-47.65Q17.7,-48.4 16.3,-48.4Q14.8,-48.4 14.8,-47.5Q14.8,-46.4 14.9,-44.1Q15,-41.8 15.05,-39.6Q15.1,-37.4 15.1,-36.4Z"></path><path transform="translate(395 200)" d="M11.8,-20.1L13,-20.1Q21.3,-20.1 27.8,-21.05Q34.3,-22 38.8,-23.3Q42.8,-24.6 44.85,-25.95Q46.9,-27.3 47.6,-29.2Q48.3,-31.1 48.3,-34Q48.3,-37.6 46.75,-40.9Q45.2,-44.2 41.6,-46.3Q38,-48.4 31.9,-48.4Q27,-48.4 22.8,-46.15Q18.6,-43.9 15.3,-40.4Q12,-36.9 9.85,-32.9Q7.7,-28.9 7.1,-25.3Q7.1,-25.3 6.65,-25.25Q6.2,-25.2 6,-25.2Q4.3,-25.2 4.3,-24Q4.3,-22.4 6.4,-21L6.4,-19.5Q6.4,-13 8.8,-8.25Q11.2,-3.5 15.25,-0.95Q19.3,1.6 24.4,1.6Q30.5,1.6 35.05,-0.25Q39.6,-2.1 42.55,-4.65Q45.5,-7.2 47,-9.5Q48.5,-11.8 48.5,-12.7Q48.5,-13.7 47.7,-13.7Q46.8,-13.7 45.6,-12.4Q41.6,-8.1 36.25,-5.75Q30.9,-3.4 24.4,-3.4Q19.3,-3.4 15.55,-7.5Q11.8,-11.6 11.8,-19.8L11.8,-20.1ZM14.6,-25L12.5,-25Q13,-27.7 14.7,-30.9Q16.4,-34.1 18.95,-37Q21.5,-39.9 24.8,-41.75Q28.1,-43.6 31.8,-43.6Q37.1,-43.6 40,-41.05Q42.9,-38.5 42.9,-34.1Q42.9,-32.3 42.5,-31.2Q42.1,-30.1 40.75,-29.3Q39.4,-28.5 36.3,-27.6Q32.9,-26.6 27.55,-25.8Q22.2,-25 14.6,-25Z"></path><path transform="translate(449 200)" d="M48.3,-14.2Q48.3,-15.2 47.5,-15.2Q46.7,-15.2 45.4,-13.9Q43.1,-11.5 40.15,-9.1Q37.2,-6.7 33.5,-5.05Q29.8,-3.4 25,-3.4Q21.8,-3.4 18.65,-5.15Q15.5,-6.9 13.45,-10.55Q11.4,-14.2 11.4,-19.9Q11.4,-24.6 13.15,-28.85Q14.9,-33.1 17.85,-36.35Q20.8,-39.6 24.35,-41.5Q27.9,-43.4 31.5,-43.4Q35,-43.4 37.3,-41.65Q39.6,-39.9 41.3,-36.7Q41.6,-36.2 42.2,-36.2Q43.3,-36.2 44.45,-37.4Q45.6,-38.6 45.6,-40Q45.6,-40.3 44.9,-41.6Q44.2,-42.9 42.6,-44.45Q41,-46 38.25,-47.2Q35.5,-48.4 31.3,-48.4Q26.7,-48.4 22.15,-46.15Q17.6,-43.9 13.9,-39.9Q10.2,-35.9 8,-30.65Q5.8,-25.4 5.8,-19.4Q5.8,-12.6 8.45,-7.9Q11.1,-3.2 15.45,-0.8Q19.8,1.6 25,1.6Q30.9,1.6 35.25,-0.5Q39.6,-2.6 42.5,-5.5Q45.4,-8.4 46.85,-10.9Q48.3,-13.4 48.3,-14.2Z"></path><path transform="translate(502 200)" d="M31.6,-8.9L31.1,-8.5Q28.5,-6.4 25.9,-5.1Q23.3,-3.8 21.2,-3.8Q19,-3.8 18.2,-5.2Q17.4,-6.6 17.4,-10.8L17.4,-43.4L21.5,-43.6Q23.5,-43.7 26.3,-43.7Q29.1,-43.7 30.1,-43.7Q31.1,-43.7 31.1,-44.9Q31.1,-46 30.2,-47.25Q29.3,-48.5 28.1,-48.5L28,-48.5Q27,-48.4 24.6,-48.2Q22.2,-48 20.4,-47.9L17.4,-47.8L17.4,-52.8Q17.4,-54 17.45,-55.8Q17.5,-57.6 17.55,-59.25Q17.6,-60.9 17.6,-61.7Q17.6,-62.9 16.1,-63.65Q14.6,-64.4 13.3,-64.4Q11.8,-64.4 11.8,-63.5Q11.8,-62.4 11.85,-60.2Q11.9,-58 11.95,-55.9Q12,-53.8 12,-52.8L12,-47.5L3.1,-47.5Q2.1,-47.5 2.1,-46.5Q2.1,-45.5 3,-44.15Q3.9,-42.8 5.2,-42.8Q5.2,-42.8 7.3,-42.95Q9.4,-43.1 11.6,-43.2L12,-43.2L12,-11Q12,-4.7 13.8,-1.55Q15.6,1.6 20.8,1.6Q23.3,1.6 25.7,0.3Q28.1,-1 30.05,-2.8Q32,-4.6 33.2,-6.3Q34.4,-8 34.4,-8.8Q34.4,-9.7 33.5,-9.7Q32.8,-9.7 31.6,-8.9Z"></path><path transform="translate(538 200)" d=""></path><path transform="translate(573 200)" d="M44.7,-36.1L48.9,-36.1Q50,-36.1 50,-37.5Q50,-38.7 49.05,-40.25Q48.1,-41.8 46.8,-41.8Q45.9,-41.8 43.35,-41.5Q40.8,-41.2 38.5,-41L16.6,-39.7L16.6,-63.4L44.1,-65.2Q45.5,-65.3 47.1,-65.3Q48.7,-65.3 50.2,-65.3L54.4,-65.3Q55.5,-65.3 55.5,-66.7Q55.5,-67.9 54.55,-69.45Q53.6,-71 52.3,-71Q51.4,-71 48.85,-70.7Q46.3,-70.4 44,-70.2L16.8,-68.4Q16.8,-68.4 15.9,-68.75Q15,-69.1 13.75,-69.45Q12.5,-69.8 11.6,-69.8Q10.4,-69.8 10.4,-68.4Q10.4,-68 10.45,-67.45Q10.5,-66.9 10.6,-66.1Q10.8,-64.9 10.8,-63.45Q10.8,-62 10.8,-60.4L10.8,-39.6Q10.3,-39.6 9.85,-39.65Q9.4,-39.7 8.9,-39.8L8.7,-39.8Q8,-39.8 8,-39Q8,-38 8.85,-36.65Q9.7,-35.3 10.8,-34.7L10.8,-10.8Q10.8,-9.6 10.75,-7.8Q10.7,-6 10.65,-4.35Q10.6,-2.7 10.6,-1.9Q10.6,-0.6 12.2,0.15Q13.8,0.9 15.2,0.9Q16.9,0.9 16.9,-0.1Q16.9,-1.3 16.85,-3.3Q16.8,-5.3 16.7,-7.4Q16.6,-9.5 16.6,-10.7L16.6,-34.8L38.6,-36Q40,-36.1 41.6,-36.1Q43.2,-36.1 44.7,-36.1Z"></path><path transform="translate(627 200)" d="M19.3,-44.2Q18.8,-45.2 17.7,-45.2Q16.7,-45.2 14.75,-43.1Q12.8,-41 10.75,-37.45Q8.7,-33.9 7.25,-29.55Q5.8,-25.2 5.8,-20.7Q5.8,-10.4 11.25,-4.4Q16.7,1.6 26.7,1.6Q32.5,1.6 36.9,-0.65Q41.3,-2.9 44.3,-6.7Q47.3,-10.5 48.85,-15.1Q50.4,-19.7 50.4,-24.5Q50.4,-35.8 45.05,-42.1Q39.7,-48.4 31.2,-48.4Q27,-48.4 24.15,-47.05Q21.3,-45.7 19.3,-44.2ZM26.7,-3.5Q19.5,-3.5 15.4,-8Q11.3,-12.5 11.3,-20.8Q11.3,-24.7 12.75,-28.7Q14.2,-32.7 16.75,-36.05Q19.3,-39.4 22.85,-41.4Q26.4,-43.4 30.6,-43.4Q37.5,-43.4 41.2,-38.15Q44.9,-32.9 44.9,-24.5Q44.9,-18.7 42.4,-13.95Q39.9,-9.2 35.75,-6.35Q31.6,-3.5 26.7,-3.5Z"></path><path transform="translate(683 200)" d="M9.4,-36.7L9.4,-10.6Q9.4,-9.9 9.35,-8.1Q9.3,-6.3 9.25,-4.45Q9.2,-2.6 9.2,-1.8Q9.2,-0.6 10.75,0.15Q12.3,0.9 13.6,0.9Q15.1,0.9 15.1,-0Q15.1,-1.7 14.95,-4.6Q14.8,-7.5 14.8,-10.6Q14.8,-16.3 14.85,-20.1Q14.9,-23.9 15.2,-26.6Q15.5,-29.3 16.2,-31.6Q17.9,-37.1 22,-40Q26.1,-42.9 30.4,-42.9Q32,-42.9 34.4,-42Q36.8,-41.1 37.8,-39.1Q38.4,-38.1 39.2,-38.1Q40.2,-38.1 41.1,-39.6Q42,-41.1 42,-42.5Q42,-43.8 40.3,-45.15Q38.6,-46.5 36,-47.45Q33.4,-48.4 30.7,-48.4Q25.4,-48.4 21.15,-45.65Q16.9,-42.9 14.9,-39.1Q14.9,-40.9 14.95,-42.65Q15,-44.4 15,-45.6Q15,-46.8 13.5,-47.55Q12,-48.3 10.6,-48.3Q9.1,-48.3 9.1,-47.4Q9.1,-46.3 9.15,-44.1Q9.2,-41.9 9.3,-39.8Q9.4,-37.7 9.4,-36.7Z"></path><path transform="translate(726 200)" d=""></path><path transform="translate(761 200)" d="M9.3,-63.1L7.9,-68.5Q7.7,-69.4 6.45,-69.9Q5.2,-70.4 3.8,-70.4Q2.8,-70.4 2,-70.1Q1.2,-69.8 1.2,-69Q1.2,-68.7 1.3,-68.5Q2.7,-65.3 4.4,-59.85Q6.1,-54.4 7.95,-47.7Q9.8,-41 11.65,-34.05Q13.5,-27.1 15,-20.95Q16.5,-14.8 17.6,-10.45Q18.7,-6.1 19,-4.6Q19.8,-1.8 21.35,-0.2Q22.9,1.4 24.4,1.4Q26.2,1.4 26.8,-0.7Q27.5,-2.9 27.9,-4.65Q28.3,-6.4 28.7,-7.9Q31.1,-16.1 33.7,-25.25Q36.3,-34.4 38.95,-43.25Q41.6,-52.1 43.9,-59.5Q46.2,-51.6 48.65,-42.3Q51.1,-33 53.55,-23.35Q56,-13.7 58.1,-4.6Q58.9,-1.5 60.55,0Q62.2,1.5 63.7,1.5Q65.7,1.5 66.3,-0.7Q66.8,-2.6 67.2,-4.5Q67.6,-6.4 68,-8Q72.3,-22.7 75.4,-32.85Q78.5,-43 80.7,-49.6Q82.9,-56.2 84.4,-60.25Q85.9,-64.3 87,-66.9Q87.1,-67.1 87.1,-67.5Q87.1,-68.8 85.45,-69.85Q83.8,-70.9 82.4,-70.9Q81.2,-70.9 80.9,-70Q80.2,-67.2 79.4,-64.25Q78.6,-61.3 77.8,-58.8Q74.6,-48.5 70.6,-35.3Q66.6,-22.1 62.5,-7.2Q60.8,-15.1 58.45,-24.7Q56.1,-34.3 53.4,-44.3Q50.7,-54.3 48.1,-63.1Q47.9,-64 47.7,-64.7Q47.5,-65.4 47.3,-66.7Q47.2,-67.6 45.75,-68.2Q44.3,-68.8 42.8,-68.8Q41.6,-68.8 40.7,-68.4Q39.8,-68 39.8,-67Q39.7,-65.5 39.4,-64.05Q39.1,-62.6 38.6,-61Q35.4,-50.1 31.35,-36.05Q27.3,-22 23.3,-7.3Q20.2,-21.8 16.7,-35.9Q13.2,-50 9.3,-63.1Z"></path><path transform="translate(846 200)" d="M11.8,-20.1L13,-20.1Q21.3,-20.1 27.8,-21.05Q34.3,-22 38.8,-23.3Q42.8,-24.6 44.85,-25.95Q46.9,-27.3 47.6,-29.2Q48.3,-31.1 48.3,-34Q48.3,-37.6 46.75,-40.9Q45.2,-44.2 41.6,-46.3Q38,-48.4 31.9,-48.4Q27,-48.4 22.8,-46.15Q18.6,-43.9 15.3,-40.4Q12,-36.9 9.85,-32.9Q7.7,-28.9 7.1,-25.3Q7.1,-25.3 6.65,-25.25Q6.2,-25.2 6,-25.2Q4.3,-25.2 4.3,-24Q4.3,-22.4 6.4,-21L6.4,-19.5Q6.4,-13 8.8,-8.25Q11.2,-3.5 15.25,-0.95Q19.3,1.6 24.4,1.6Q30.5,1.6 35.05,-0.25Q39.6,-2.1 42.55,-4.65Q45.5,-7.2 47,-9.5Q48.5,-11.8 48.5,-12.7Q48.5,-13.7 47.7,-13.7Q46.8,-13.7 45.6,-12.4Q41.6,-8.1 36.25,-5.75Q30.9,-3.4 24.4,-3.4Q19.3,-3.4 15.55,-7.5Q11.8,-11.6 11.8,-19.8L11.8,-20.1ZM14.6,-25L12.5,-25Q13,-27.7 14.7,-30.9Q16.4,-34.1 18.95,-37Q21.5,-39.9 24.8,-41.75Q28.1,-43.6 31.8,-43.6Q37.1,-43.6 40,-41.05Q42.9,-38.5 42.9,-34.1Q42.9,-32.3 42.5,-31.2Q42.1,-30.1 40.75,-29.3Q39.4,-28.5 36.3,-27.6Q32.9,-26.6 27.55,-25.8Q22.2,-25 14.6,-25Z"></path><path transform="translate(900 200)" d="M9.4,-59.3L9.4,-10.6Q9.4,-8 9.3,-5.35Q9.2,-2.7 9.2,-1.5Q9.2,0.3 10.5,0.3Q11.6,0.3 12.8,-0.7Q14,-1.7 14.2,-2.6Q14.5,-4.7 14.5,-6.1Q16.2,-2.5 19.7,-0.5Q23.2,1.5 27.2,1.5Q33.9,1.5 39.4,-2.3Q44.9,-6.1 48.2,-12.75Q51.5,-19.4 51.5,-27.8Q51.5,-37.9 46.75,-43.15Q42,-48.4 34.6,-48.4Q29.1,-48.4 23.9,-45.55Q18.7,-42.7 14.8,-35.6L14.8,-59.2Q14.8,-61.8 14.9,-64.35Q15,-66.9 15,-68.1Q15,-69.3 13.5,-70.05Q12,-70.8 10.6,-70.8Q9.1,-70.8 9.1,-69.9Q9.1,-68.2 9.25,-65.3Q9.4,-62.4 9.4,-59.3ZM15.4,-25.3Q16.5,-30.7 19.4,-34.75Q22.3,-38.8 26.3,-41.1Q30.3,-43.4 34.6,-43.4Q39.3,-43.4 42.6,-39.5Q45.9,-35.6 45.9,-27.6Q45.9,-19.8 43,-14.35Q40.1,-8.9 35.85,-6.1Q31.6,-3.3 27.5,-3.3Q24.9,-3.3 22.35,-4.6Q19.8,-5.9 17.8,-8.7Q16.8,-10.3 15.6,-10.3Q14.9,-10.3 14.6,-9.8Q14.6,-11.9 14.65,-14.85Q14.7,-17.8 14.85,-20.7Q15,-23.6 15.4,-25.3Z"></path></svg>